<svg id="Layer_1" data-name="Layer 1" xmlns="http://www.w3.org/2000/svg" viewBox="0 0 1098 252.46"><defs><style>.cls-1{fill:#555;}.cls-2{font-size:92px;}.cls-2,.cls-3,.cls-4,.cls-5{fill:#fff;}.cls-2,.cls-3,.cls-4{font-family:AmericanTypewriter-Bold, American Typewriter;font-weight:700;}.cls-3{font-size:84px;}.cls-4{font-size:143px;}.cls-6{fill:none;stroke:#fff;stroke-miterlimit:10;stroke-width:8px;}</style></defs><title>doubleewe-horiz-white</title><circle class="cls-1" cx="967.32" cy="126.23" r="40.54"/><circle class="cls-1" cx="130.81" cy="127.97" r="40.54"/><text class="cls-2" transform="translate(232.22 167.05)">double</text><text class="cls-3" transform="translate(498.15 155.04)"><tspan xml:space="preserve">  </tspan></text><text class="cls-4" transform="translate(569.88 169.69)">ewe</text><path d="M111.83,174.35v7.92c0,5.76.06,11.52,0,17.28,0,3.33-2.62,5.57-5.54,5a4.31,4.31,0,0,1-3.67-4.4c-.12-2.88,0-5.76-.06-8.64,0-6.68,0-13.35,0-20,0-3.68-4.19-8.56-7.76-9-10-1.32-20.16-8.51-21.69-22.37a5.79,5.79,0,0,0-2.24-4.26c-9.15-7.6-10.54-20.77-4.91-29.45a6.2,6.2,0,0,0,.65-5.14c-2.5-11.9,2.4-22,13.37-27.18a5.67,5.67,0,0,0,3.15-3.63,23.31,23.31,0,0,1,12-13.37,25.09,25.09,0,0,1,14.42-2.69,6,6,0,0,0,5-1.21C123.46,46,138.18,46,147,53.2a5.66,5.66,0,0,0,4.67,1.28c11.1-1.3,22.47,4.51,26.67,15.64a7.27,7.27,0,0,0,4,4.35c10.31,5.14,15.12,15.41,12.59,26.87a6.43,6.43,0,0,0,.72,5.14,22.45,22.45,0,0,1-4.18,28.6,10.4,10.4,0,0,0-3.43,7c-1,8.12-5.58,14-12.78,17.66a37,37,0,0,1-8.53,2.69c-3.49.79-7.67,5.46-7.69,9.13,0,8.64,0,17.27,0,25.91a25.24,25.24,0,0,1-.07,3.14,4.35,4.35,0,0,1-4.51,4,4.48,4.48,0,0,1-4.54-4c-.2-2.21-.07-4.45-.08-6.67,0-5.76,0-11.52,0-17.28,0-2.58-.3-2.82-2.74-2.35a21.91,21.91,0,0,1-14.5-1.81,4.17,4.17,0,0,0-3.28-.12c-5.15,2.67-10.49,2.92-16,1.75A7.64,7.64,0,0,0,111.83,174.35ZM108.18,61.8c-9.58,0-16.64,5.3-18.46,13.58-.66,3-2,4.19-4.84,5C75.62,83.21,70.15,94,75.26,102.7c1.24,2.1.76,3.44-.83,5.09A14.39,14.39,0,0,0,70.16,118c0,6.39,3.22,10.92,8.57,14,2,1.14,2.75,2.38,2.33,4.69a14,14,0,0,0,3.39,12c3.89,4.61,9,6.5,14.91,6.62,1.64,0,3.08-.06,3.84,1.85,2.82,7.09,11.81,11.86,20.71,9.14a22.79,22.79,0,0,1,13.58-.07c9.14,2.57,16.23-.75,20.81-8.91a3.41,3.41,0,0,1,3.35-2.05,26.43,26.43,0,0,0,5.82-.66c9.61-2.28,14.82-11.17,13.07-18.56-.54-2.3.89-3.18,2.58-4.2,6.79-4.08,9.92-11.28,7.57-18a21.66,21.66,0,0,0-4-6.6c-1.35-1.6-1.46-2.75-.43-4.47,4.66-7.78.89-17.17-6.86-21.36-5.69-3.07-5.69-3.07-8.29-9-3.62-8.28-12.32-12.31-21.92-9.86a4,4,0,0,1-4.65-1.36c-6.06-6.48-16.15-7.87-23.35-3.28-2.17,1.39-3.76,4.23-6,4.8C112.71,63.36,109.81,62.08,108.18,61.8Z"/><path class="cls-5" d="M108.18,61.8c1.63.28,4.53,1.56,6.95,1,2.26-.57,3.85-3.41,6-4.8,7.2-4.59,17.29-3.2,23.35,3.28a4,4,0,0,0,4.65,1.36c9.6-2.45,18.3,1.58,21.92,9.86,2.6,5.94,2.6,5.94,8.29,9,7.75,4.19,11.52,13.58,6.86,21.36-1,1.72-.92,2.87.43,4.47a21.66,21.66,0,0,1,4,6.6c2.35,6.72-.78,13.92-7.57,18-1.69,1-3.12,1.9-2.58,4.2,1.75,7.39-3.46,16.28-13.07,18.56a26.43,26.43,0,0,1-5.82.66,3.41,3.41,0,0,0-3.35,2.05c-4.58,8.16-11.67,11.48-20.81,8.91a22.79,22.79,0,0,0-13.58.07c-8.9,2.72-17.89-2.05-20.71-9.14-.76-1.91-2.2-1.82-3.84-1.85-5.87-.12-11-2-14.91-6.62a14,14,0,0,1-3.39-12c.42-2.31-.33-3.55-2.33-4.69-5.35-3.07-8.52-7.6-8.57-14a14.39,14.39,0,0,1,4.27-10.24c1.59-1.65,2.07-3,.83-5.09-5.11-8.71.36-19.49,9.62-22.28,2.83-.85,4.18-2,4.84-5C91.54,67.1,98.6,61.81,108.18,61.8ZM109.46,132c1,3.6,1.72,6.38,2.57,9.12,1.91,6.15,4.29,12.09,8.88,16.81a13.47,13.47,0,0,0,10.49,4.44c5.2-.18,8.79-3,11.71-6.91,4.23-5.66,6.23-12.31,8.1-19,.36-1.27.41-2.73,1.69-3.91a35.7,35.7,0,0,0,2.19,3.07,28.27,28.27,0,0,0,4.44,4.38c4.41,3,9.59,1.19,11.43-3.85A11,11,0,0,0,169.25,125a46.75,46.75,0,0,0-6.88-6.9c-1.71-1.4-2.74-2.58-2.68-5a9.53,9.53,0,0,0-6.17-9.55,11.06,11.06,0,0,1-3.68-2.72,9.86,9.86,0,0,0-7.93-3.61,8,8,0,0,1-4.68-1.54,11.28,11.28,0,0,0-12.6,0A8.17,8.17,0,0,1,120,97.2a9.7,9.7,0,0,0-8.16,3.92,8,8,0,0,1-3,2.27c-4.68,2-6.87,5.5-6.57,10.49a3.24,3.24,0,0,1-1.72,3.47A26.14,26.14,0,0,0,92,125.9a11.52,11.52,0,0,0-1.15,10.16A7.3,7.3,0,0,0,99,141.25c3.16-.31,5.15-2.37,7-4.6C107.06,135.37,108,134,109.46,132Z"/><path d="M109.46,132c-1.46,2-2.4,3.38-3.47,4.66-1.86,2.23-3.85,4.29-7,4.6a7.3,7.3,0,0,1-8.18-5.19A11.52,11.52,0,0,1,92,125.9a26.14,26.14,0,0,1,8.51-8.55,3.24,3.24,0,0,0,1.72-3.47c-.3-5,1.89-8.5,6.57-10.49a8,8,0,0,0,3-2.27A9.7,9.7,0,0,1,120,97.2a8.17,8.17,0,0,0,4.68-1.53,11.28,11.28,0,0,1,12.6,0,8,8,0,0,0,4.68,1.54,9.86,9.86,0,0,1,7.93,3.61,11.06,11.06,0,0,0,3.68,2.72,9.53,9.53,0,0,1,6.17,9.55c-.06,2.46,1,3.64,2.68,5a46.75,46.75,0,0,1,6.88,6.9A11,11,0,0,1,171,136.14c-1.84,5-7,6.87-11.43,3.85a28.27,28.27,0,0,1-4.44-4.38,35.7,35.7,0,0,1-2.19-3.07c-1.28,1.18-1.33,2.64-1.69,3.91-1.87,6.69-3.87,13.34-8.1,19-2.92,3.9-6.51,6.73-11.71,6.91a13.47,13.47,0,0,1-10.49-4.44c-4.59-4.72-7-10.66-8.88-16.81C111.18,138.37,110.47,135.59,109.46,132Zm15.48-27.53c-.91-.41-1.61-.74-2.33-1-2.84-1.16-5.51-.46-6.47,2.32-.75,2.18-1.85,2.67-3.91,2.86a4.57,4.57,0,0,0-4.23,4c-.21,1.82.75,3.57,3.09,4.45,2.19.81,2.78,2.27,3.19,4.35,1.25,6.4,2.53,12.8,4.18,19.11,1.25,4.8,3.06,9.48,6.64,13.16s7.85,3.72,11.4.19a19.44,19.44,0,0,0,3.11-4c4.9-8.56,6.8-18,7.85-27.67.29-2.69.53-4.7,3.7-5.33,1.77-.36,2.72-2,2.69-3.89a4.21,4.21,0,0,0-3.07-4.1,5.15,5.15,0,0,0-1.9-.41c-1.68.09-2.45-.54-3-2.24-1.17-3.28-3.62-4-6.88-2.62-.69.3-1.4.54-2.07.79C133,98.17,129.28,97.59,124.94,104.46Zm30.51,16.71c-.49,2.6.88,4.45,1.91,6.28a57.38,57.38,0,0,0,4.53,6.8,2.63,2.63,0,0,0,2.37.8,3.91,3.91,0,0,0,1.58-2.42,4,4,0,0,0-.5-2.61A18.72,18.72,0,0,0,155.45,121.17Zm-48.56-.24A19,19,0,0,0,98,127.61a8.62,8.62,0,0,0-1.76,3.81,4.41,4.41,0,0,0,1.06,3.42c1.21,1,2.42-.14,3.28-1.12A28.54,28.54,0,0,0,106.89,120.93Z"/><path class="cls-5" d="M155.45,121.17a18.72,18.72,0,0,1,9.89,8.85,4,4,0,0,1,.5,2.61,3.91,3.91,0,0,1-1.58,2.42,2.63,2.63,0,0,1-2.37-.8,57.38,57.38,0,0,1-4.53-6.8C156.33,125.62,155,123.77,155.45,121.17Z"/><path class="cls-5" d="M106.89,120.93a28.54,28.54,0,0,1-6.28,12.79c-.86,1-2.07,2.17-3.28,1.12a4.41,4.41,0,0,1-1.06-3.42A8.62,8.62,0,0,1,98,127.61,19,19,0,0,1,106.89,120.93Z"/><path d="M948.22,174.35v7.92c0,5.76,0,11.52,0,17.28-.05,3.33-2.62,5.57-5.54,5a4.32,4.32,0,0,1-3.68-4.4c-.12-2.88-.05-5.76-.05-8.64,0-6.68,0-13.35,0-20,0-3.68-4.19-8.56-7.76-9-10-1.32-20.16-8.51-21.69-22.37a5.82,5.82,0,0,0-2.24-4.26c-9.15-7.6-10.55-20.77-4.91-29.45a6.16,6.16,0,0,0,.64-5.14c-2.49-11.9,2.41-22,13.38-27.18a5.7,5.7,0,0,0,3.15-3.63,23.31,23.31,0,0,1,12-13.37,25.07,25.07,0,0,1,14.42-2.69,6,6,0,0,0,5.05-1.21c8.91-7.24,23.62-7.21,32.48,0a5.65,5.65,0,0,0,4.67,1.28c11.09-1.3,22.47,4.51,26.66,15.64a7.33,7.33,0,0,0,4,4.35c10.32,5.14,15.13,15.41,12.6,26.87a6.39,6.39,0,0,0,.71,5.14,22.43,22.43,0,0,1-4.17,28.6,10.36,10.36,0,0,0-3.43,7c-1,8.12-5.59,14-12.79,17.66a36.93,36.93,0,0,1-8.52,2.69c-3.49.79-7.68,5.46-7.69,9.13,0,8.64,0,17.27,0,25.91a25.24,25.24,0,0,1-.06,3.14,4.35,4.35,0,0,1-4.51,4,4.47,4.47,0,0,1-4.54-4c-.21-2.21-.08-4.45-.08-6.67,0-5.76,0-11.52,0-17.28,0-2.58-.31-2.82-2.74-2.35a21.91,21.91,0,0,1-14.5-1.81,4.17,4.17,0,0,0-3.28-.12c-5.15,2.67-10.5,2.92-16,1.75A7.55,7.55,0,0,0,948.22,174.35ZM944.57,61.8c-9.58,0-16.65,5.3-18.46,13.58-.66,3-2,4.19-4.84,5C912,83.21,906.54,94,911.65,102.7c1.24,2.1.76,3.44-.83,5.09A14.3,14.3,0,0,0,906.55,118c.05,6.39,3.22,10.92,8.56,14,2,1.14,2.76,2.38,2.33,4.69a14,14,0,0,0,3.4,12c3.89,4.61,9,6.5,14.91,6.62,1.64,0,3.07-.06,3.84,1.85,2.82,7.09,11.8,11.86,20.7,9.14a22.79,22.79,0,0,1,13.58-.07c9.14,2.57,16.24-.75,20.82-8.91a3.41,3.41,0,0,1,3.35-2.05,26.34,26.34,0,0,0,5.81-.66c9.62-2.28,14.83-11.17,13.08-18.56-.54-2.3.89-3.18,2.58-4.2,6.79-4.08,9.92-11.28,7.57-18a21.49,21.49,0,0,0-4-6.6c-1.35-1.6-1.46-2.75-.43-4.47,4.66-7.78.89-17.17-6.85-21.36-5.69-3.07-5.69-3.07-8.29-9-3.62-8.28-12.33-12.31-21.92-9.86a4,4,0,0,1-4.65-1.36c-6.07-6.48-16.15-7.87-23.35-3.28-2.18,1.39-3.77,4.23-6,4.8S946.2,62.08,944.57,61.8Z"/><path class="cls-5" d="M944.57,61.8c1.63.28,4.53,1.56,6.94,1s3.85-3.41,6-4.8c7.2-4.59,17.28-3.2,23.35,3.28a4,4,0,0,0,4.65,1.36c9.59-2.45,18.3,1.58,21.92,9.86,2.6,5.94,2.6,5.94,8.29,9,7.74,4.19,11.51,13.58,6.85,21.36-1,1.72-.92,2.87.43,4.47a21.49,21.49,0,0,1,4,6.6c2.35,6.72-.78,13.92-7.57,18-1.69,1-3.12,1.9-2.58,4.2,1.75,7.39-3.46,16.28-13.08,18.56a26.34,26.34,0,0,1-5.81.66,3.41,3.41,0,0,0-3.35,2.05c-4.58,8.16-11.68,11.48-20.82,8.91a22.79,22.79,0,0,0-13.58.07c-8.9,2.72-17.88-2.05-20.7-9.14-.77-1.91-2.2-1.82-3.84-1.85-5.88-.12-11-2-14.91-6.62a14,14,0,0,1-3.4-12c.43-2.31-.33-3.55-2.33-4.69-5.34-3.07-8.51-7.6-8.56-14a14.3,14.3,0,0,1,4.27-10.24c1.59-1.65,2.07-3,.83-5.09-5.11-8.71.36-19.49,9.62-22.28,2.83-.85,4.18-2,4.84-5C927.92,67.1,935,61.81,944.57,61.8ZM945.85,132c1,3.6,1.72,6.38,2.57,9.12,1.91,6.15,4.29,12.09,8.87,16.81a13.49,13.49,0,0,0,10.5,4.44c5.2-.18,8.79-3,11.7-6.91,4.23-5.66,6.24-12.31,8.11-19,.35-1.27.41-2.73,1.69-3.91a33.64,33.64,0,0,0,2.19,3.07,28.27,28.27,0,0,0,4.44,4.38c4.4,3,9.59,1.19,11.43-3.85a11,11,0,0,0-1.71-11.11,46.75,46.75,0,0,0-6.88-6.9c-1.71-1.4-2.74-2.58-2.69-5a9.52,9.52,0,0,0-6.17-9.55,11.12,11.12,0,0,1-3.67-2.72,9.86,9.86,0,0,0-7.93-3.61,8,8,0,0,1-4.68-1.54,11.29,11.29,0,0,0-12.61,0,8.14,8.14,0,0,1-4.67,1.53,9.69,9.69,0,0,0-8.16,3.92,8,8,0,0,1-3,2.27c-4.68,2-6.87,5.5-6.57,10.49a3.25,3.25,0,0,1-1.72,3.47,26.27,26.27,0,0,0-8.52,8.55,11.48,11.48,0,0,0-1.14,10.16,7.3,7.3,0,0,0,8.18,5.19c3.15-.31,5.15-2.37,7-4.6C943.45,135.37,944.39,134,945.85,132Z"/><path d="M945.85,132c-1.46,2-2.4,3.38-3.47,4.66-1.86,2.23-3.86,4.29-7,4.6a7.3,7.3,0,0,1-8.18-5.19,11.48,11.48,0,0,1,1.14-10.16,26.27,26.27,0,0,1,8.52-8.55,3.25,3.25,0,0,0,1.72-3.47c-.3-5,1.89-8.5,6.57-10.49a8,8,0,0,0,3-2.27,9.69,9.69,0,0,1,8.16-3.92A8.14,8.14,0,0,0,961,95.67a11.29,11.29,0,0,1,12.61,0,8,8,0,0,0,4.68,1.54,9.86,9.86,0,0,1,7.93,3.61,11.12,11.12,0,0,0,3.67,2.72,9.52,9.52,0,0,1,6.17,9.55c-.05,2.46,1,3.64,2.69,5a46.75,46.75,0,0,1,6.88,6.9,11,11,0,0,1,1.71,11.11c-1.84,5-7,6.87-11.43,3.85a28.27,28.27,0,0,1-4.44-4.38,33.64,33.64,0,0,1-2.19-3.07c-1.28,1.18-1.34,2.64-1.69,3.91-1.87,6.69-3.88,13.34-8.11,19-2.91,3.9-6.5,6.73-11.7,6.91a13.49,13.49,0,0,1-10.5-4.44c-4.58-4.72-7-10.66-8.87-16.81C947.57,138.37,946.86,135.59,945.85,132Zm15.48-27.53c-.92-.41-1.62-.74-2.34-1-2.84-1.16-5.5-.46-6.46,2.32-.75,2.18-1.86,2.67-3.91,2.86a4.56,4.56,0,0,0-4.23,4c-.21,1.82.75,3.57,3.08,4.45s2.79,2.27,3.2,4.35c1.25,6.4,2.53,12.8,4.17,19.11,1.25,4.8,3.06,9.48,6.65,13.16s7.85,3.72,11.4.19a19.06,19.06,0,0,0,3.1-4c4.91-8.56,6.81-18,7.86-27.67.29-2.69.53-4.7,3.69-5.33,1.78-.36,2.73-2,2.7-3.89a4.23,4.23,0,0,0-3.07-4.1,5.15,5.15,0,0,0-1.9-.41c-1.69.09-2.45-.54-3-2.24-1.17-3.28-3.63-4-6.88-2.62-.69.3-1.41.54-2.08.79C969.41,98.17,965.67,97.59,961.33,104.46Zm30.51,16.71c-.5,2.6.88,4.45,1.91,6.28a56.18,56.18,0,0,0,4.53,6.8,2.63,2.63,0,0,0,2.37.8,4,4,0,0,0,1.58-2.42,4,4,0,0,0-.5-2.61A18.8,18.8,0,0,0,991.84,121.17Zm-48.57-.24a19.1,19.1,0,0,0-8.86,6.68,8.73,8.73,0,0,0-1.76,3.81,4.41,4.41,0,0,0,1.07,3.42c1.21,1,2.42-.14,3.28-1.12A28.53,28.53,0,0,0,943.27,120.93Z"/><path class="cls-5" d="M991.84,121.17a18.8,18.8,0,0,1,9.89,8.85,4,4,0,0,1,.5,2.61,4,4,0,0,1-1.58,2.42,2.63,2.63,0,0,1-2.37-.8,56.18,56.18,0,0,1-4.53-6.8C992.72,125.62,991.34,123.77,991.84,121.17Z"/><path class="cls-5" d="M943.27,120.93A28.53,28.53,0,0,1,937,133.72c-.86,1-2.07,2.17-3.28,1.12a4.41,4.41,0,0,1-1.07-3.42,8.73,8.73,0,0,1,1.76-3.81A19.1,19.1,0,0,1,943.27,120.93Z"/><rect class="cls-6" x="4" y="4" width="1090" height="244.46" rx="23"/></svg>